# xmcd CD database file
#
# Track frame offsets:
#	150
#	16705
#	33990
#	51582
#	69052
#	92825
#	113245
#	133142
#	158815
#	176280
#
# Disc length: 2610 seconds
#
# Revision: 1
# Processed by: cddbd v1.5.2PL0 Copyright (c) Steve Scherf et al.
# Submitted via: CDex 1.81
#
DISCID=790a300a
DTITLE=Phantoms, The [CDN-92-Raw-bls) - Raw
DYEAR=1992
DGENRE=Blues
TTITLE0=One Way Street
TTITLE1=Things I've Seen
TTITLE2=Koo Koo
TTITLE3=Break It Up
TTITLE4=Same Old Story
TTITLE5=Mellow Down EZ
TTITLE6=Ego Trip
TTITLE7=Mother
TTITLE8=Boogie Thing (Hypnotizin' Boogie)
TTITLE9=Sing For My Supper
EXTD=YEAR: 1992
EXTT0=
EXTT1=
EXTT2=
EXTT3=
EXTT4=
EXTT5=
EXTT6=
EXTT7=
EXTT8=
EXTT9=
PLAYORDER=
